<svg version="1.1" id="Layer_1" xmlns="http://www.w3.org/2000/svg" xmlns:xlink="http://www.w3.org/1999/xlink" x="0px" y="0px"
	 width="100%" viewBox="0 0 146 130" enable-background="new 0 0 146 130" xml:space="preserve">
<path fill="rgba(255, 255, 255, 0)" opacity="1.000000" stroke="none" 
	d="
M92.000000,131.000000 
	C61.333332,131.000000 31.166666,131.000000 1.000000,131.000000 
	C1.000000,87.666664 1.000000,44.333332 1.000000,1.000000 
	C49.666668,1.000000 98.333336,1.000000 147.000000,1.000000 
	C147.000000,44.333332 147.000000,87.666664 147.000000,131.000000 
	C128.833328,131.000000 110.666664,131.000000 92.000000,131.000000 
M20.052156,77.494011 
	C22.056940,73.854546 23.837803,70.068542 26.106482,66.601776 
	C34.516880,53.749878 43.208561,41.072010 56.843513,33.035114 
	C71.174438,24.587982 84.149002,28.326786 92.050308,43.000214 
	C93.500656,45.693645 94.811554,48.462162 96.186829,51.196022 
	C97.213326,38.475109 95.160530,26.539013 88.740723,15.667389 
	C83.432915,6.678894 73.991959,3.886981 65.152290,9.515011 
	C59.071289,13.386656 53.338223,18.260670 48.594471,23.687414 
	C36.551239,37.464592 28.363670,53.682590 21.106863,70.369896 
	C19.683031,73.644043 18.265884,76.921097 16.845654,80.196815 
	C17.178446,80.368637 17.511236,80.540466 17.844028,80.712296 
	C18.491812,79.857719 19.139595,79.003151 20.052156,77.494011 
M103.892601,35.698410 
	C108.095390,46.511730 112.834152,57.158657 116.265480,68.211479 
	C117.880844,73.414795 117.670105,79.470612 117.084732,85.013161 
	C115.795296,97.222107 105.762047,104.385361 91.470772,104.132164 
	C88.092300,104.072304 84.711861,104.123291 80.836555,104.123291 
	C89.382004,109.654602 106.035606,114.899223 114.769768,114.976601 
	C127.247299,115.087158 134.544830,108.345459 133.811691,95.965233 
	C133.386185,88.780167 131.788376,81.430504 129.355606,74.643272 
	C122.707893,56.096661 110.867302,40.478542 99.594749,24.595016 
	C99.125389,23.933662 98.195549,23.599104 97.480240,23.112301 
	C97.239578,23.320364 96.998909,23.528425 96.758247,23.736486 
	C99.009850,27.513445 101.261444,31.290403 103.892601,35.698410 
M36.155304,80.012589 
	C38.445297,75.466705 40.735294,70.920815 43.181999,66.063843 
	C42.256531,66.153282 41.216179,65.929848 40.764050,66.345802 
	C33.212231,73.293373 24.812187,79.586739 18.487141,87.528015 
	C11.549104,96.238922 14.064461,106.233765 23.333838,112.565750 
	C26.824100,114.949989 30.971138,116.604660 35.043854,117.864014 
	C52.205387,123.170677 69.853683,122.560875 87.470993,121.462868 
	C94.475189,121.026329 101.436981,119.909485 108.418083,119.102356 
	C108.378090,118.684319 108.338097,118.266281 108.298096,117.848244 
	C101.501686,117.848244 94.683167,118.200706 87.913399,117.776024 
	C73.092949,116.846298 58.394676,115.153816 45.545048,106.614838 
	C35.840023,100.165543 32.798126,91.980446 36.155304,80.012589 
z"/>
<path fill="#1467A6" opacity="1.000000" stroke="none" 
	d="
M19.919767,77.821289 
	C19.139595,79.003151 18.491812,79.857719 17.844028,80.712296 
	C17.511236,80.540466 17.178446,80.368637 16.845654,80.196815 
	C18.265884,76.921097 19.683031,73.644043 21.106863,70.369896 
	C28.363670,53.682590 36.551239,37.464592 48.594471,23.687414 
	C53.338223,18.260670 59.071289,13.386656 65.152290,9.515011 
	C73.991959,3.886981 83.432915,6.678894 88.740723,15.667389 
	C95.160530,26.539013 97.213326,38.475109 96.186829,51.196022 
	C94.811554,48.462162 93.500656,45.693645 92.050308,43.000214 
	C84.149002,28.326786 71.174438,24.587982 56.843513,33.035114 
	C43.208561,41.072010 34.516880,53.749878 26.106482,66.601776 
	C23.837803,70.068542 22.056940,73.854546 19.919767,77.821289 
z"/>
<path fill="#F97130" opacity="1.000000" stroke="none" 
	d="
M103.702820,35.382885 
	C101.261444,31.290403 99.009850,27.513445 96.758247,23.736486 
	C96.998909,23.528425 97.239578,23.320364 97.480240,23.112301 
	C98.195549,23.599104 99.125389,23.933662 99.594749,24.595016 
	C110.867302,40.478542 122.707893,56.096661 129.355606,74.643272 
	C131.788376,81.430504 133.386185,88.780167 133.811691,95.965233 
	C134.544830,108.345459 127.247299,115.087158 114.769768,114.976601 
	C106.035606,114.899223 89.382004,109.654602 80.836555,104.123291 
	C84.711861,104.123291 88.092300,104.072304 91.470772,104.132164 
	C105.762047,104.385361 115.795296,97.222107 117.084732,85.013161 
	C117.670105,79.470612 117.880844,73.414795 116.265480,68.211479 
	C112.834152,57.158657 108.095390,46.511730 103.702820,35.382885 
z"/>
<path fill="#509D50" opacity="1.000000" stroke="none" 
	d="
M36.053238,80.410484 
	C32.798126,91.980446 35.840023,100.165543 45.545048,106.614838 
	C58.394676,115.153816 73.092949,116.846298 87.913399,117.776024 
	C94.683167,118.200706 101.501686,117.848244 108.298096,117.848244 
	C108.338097,118.266281 108.378090,118.684319 108.418083,119.102356 
	C101.436981,119.909485 94.475189,121.026329 87.470993,121.462868 
	C69.853683,122.560875 52.205387,123.170677 35.043854,117.864014 
	C30.971138,116.604660 26.824100,114.949989 23.333838,112.565750 
	C14.064461,106.233765 11.549104,96.238922 18.487141,87.528015 
	C24.812187,79.586739 33.212231,73.293373 40.764050,66.345802 
	C41.216179,65.929848 42.256531,66.153282 43.181999,66.063843 
	C40.735294,70.920815 38.445297,75.466705 36.053238,80.410484 
z"/>
</svg>